<?xml version="1.0" standalone="no"?>
<!DOCTYPE svg PUBLIC "-//W3C//DTD SVG 20010904//EN"
 "http://www.w3.org/TR/2001/REC-SVG-20010904/DTD/svg10.dtd">
<svg version="1.0" xmlns="http://www.w3.org/2000/svg"
 width="130.000000pt" height="176.000000pt" viewBox="0 0 130.000000 176.000000"
 preserveAspectRatio="xMidYMid meet">

<g transform="translate(0.000000,176.000000) scale(0.100000,-0.100000)"
stroke="none">
<path d="M605 1708 c-3 -7 -20 -58 -39 -113 -91 -269 -109 -317 -122 -322 -8
-3 -67 12 -131 32 -162 51 -222 63 -233 45 -17 -28 39 -130 163 -297 57 -77
77 -112 74 -127 -3 -11 -22 -68 -42 -126 -67 -195 -107 -380 -113 -523 -2 -72
0 -127 5 -127 5 0 15 32 22 71 19 105 57 209 89 242 15 16 56 50 92 75 36 26
100 75 143 109 43 35 84 63 93 63 22 0 66 -25 89 -50 11 -13 61 -56 110 -95
123 -99 165 -145 176 -191 4 -22 9 -91 9 -154 1 -77 5 -123 14 -140 l14 -24
11 39 c46 159 24 508 -42 675 -14 36 -34 90 -45 121 l-19 56 80 84 c44 46 109
122 144 169 57 77 61 86 46 98 -32 23 -166 6 -284 -37 -52 -19 -79 -25 -106
-22 -32 3 -138 295 -158 434 -4 32 -11 47 -21 47 -8 0 -17 -6 -19 -12z m30
-175 c31 -113 78 -268 86 -285 12 -22 -11 -44 -69 -69 -47 -21 -48 -20 -106
24 -35 28 -38 33 -32 68 5 29 40 160 82 302 10 32 23 18 39 -40z m-343 -274
c71 -28 132 -57 134 -63 3 -7 -15 -50 -39 -97 l-43 -85 -45 50 c-84 94 -159
206 -159 238 0 14 20 9 152 -43z m819 -17 c-6 -11 -36 -48 -68 -84 -32 -35
-76 -86 -98 -112 l-40 -48 -44 91 c-25 50 -42 93 -40 96 12 11 236 74 267 74
29 1 32 -1 23 -17z m-585 -73 c19 -11 34 -22 34 -25 0 -2 -15 -11 -32 -20 -18
-10 -50 -31 -70 -47 -21 -17 -40 -28 -43 -26 -5 5 40 106 57 126 14 17 15 17
54 -8z m237 -7 c18 -19 71 -131 65 -137 -2 -2 -30 14 -62 35 -32 21 -71 44
-87 50 -16 7 -29 15 -29 19 1 6 78 48 91 50 3 1 13 -7 22 -17z m-119 -155 c-2
-79 -17 -112 -43 -98 -63 34 -41 196 22 171 20 -7 22 -15 21 -73z m-111 15
c-4 -35 -1 -58 11 -80 9 -18 13 -32 8 -32 -14 0 -116 31 -135 42 -18 9 -18 11
5 35 19 21 105 83 114 83 2 0 0 -22 -3 -48z m243 -20 c24 -15 43 -32 44 -38 0
-20 -63 -57 -106 -62 -46 -5 -56 5 -29 28 10 8 15 30 15 62 0 57 2 57 76 10z
m-342 -134 c29 -29 67 -63 84 -76 42 -31 40 -48 -5 -67 -39 -17 -149 -109
-221 -184 l-43 -46 6 45 c12 89 101 380 117 380 5 0 33 -24 62 -52z m478 -34
c44 -107 88 -262 95 -332 7 -73 -4 -80 -38 -24 -45 75 -92 123 -190 194 -54
40 -99 75 -99 79 0 13 182 160 193 156 6 -2 23 -34 39 -73z m-263 17 l55 -6
-33 -27 c-49 -42 -76 -41 -133 4 -51 42 -49 52 10 43 26 -4 72 -10 101 -14z"/>
</g>
</svg>
