<?xml version="1.0" standalone="no"?>
<!DOCTYPE svg PUBLIC "-//W3C//DTD SVG 20010904//EN"
 "http://www.w3.org/TR/2001/REC-SVG-20010904/DTD/svg10.dtd">
<svg version="1.0" xmlns="http://www.w3.org/2000/svg"
 width="158.000000pt" height="325.000000pt" viewBox="0 0 158.000000 325.000000"
 preserveAspectRatio="xMidYMid meet">

<g transform="translate(0.000000,325.000000) scale(0.100000,-0.100000)"
fill="#000000" stroke="none">
<path d="M742 3163 c-29 -39 -32 -49 -23 -69 6 -13 15 -24 21 -24 6 0 10 -74
9 -212 -2 -282 -10 -414 -26 -410 -9 1 -13 -14 -13 -51 0 -30 -7 -76 -15 -103
-17 -58 -18 -64 -6 -64 5 0 13 10 17 23 7 21 8 21 16 -8 13 -46 22 -290 13
-388 -6 -82 -8 -88 -28 -85 -35 5 -67 97 -66 193 0 98 -1 107 -11 75 -17 -54
-11 -179 14 -258 13 -42 28 -105 33 -140 9 -63 9 -64 -18 -77 -26 -14 -178
-182 -209 -231 -8 -13 -27 -28 -42 -33 -29 -10 -63 -74 -53 -99 3 -8 0 -21 -6
-28 -6 -7 -7 -18 -4 -25 5 -7 24 5 56 37 26 27 58 59 71 70 13 12 55 56 93 98
39 42 89 87 112 100 l41 24 6 -22 c10 -38 6 -243 -6 -296 -11 -48 -10 -55 12
-96 l23 -45 -28 -84 c-28 -86 -29 -110 -4 -192 10 -33 10 -51 -1 -96 -10 -45
-10 -62 -1 -86 13 -30 2 -71 -19 -71 -28 0 -98 -245 -76 -267 12 -12 64 51 75
91 5 20 17 43 26 53 14 13 16 29 12 75 -3 32 -1 58 4 58 5 0 9 -9 9 -20 0 -34
21 -120 30 -120 5 0 14 16 20 35 13 39 30 47 30 13 0 -13 4 -18 8 -12 19 20
32 122 32 238 0 68 5 137 11 154 8 24 7 37 -6 61 -8 17 -20 75 -25 129 -11
117 -13 469 -2 476 7 4 45 -31 192 -179 56 -56 70 -65 100 -64 51 1 84 13 88
30 1 8 -66 83 -153 168 -85 84 -155 160 -155 167 0 7 -13 28 -28 46 -57 66
-62 95 -65 413 -1 160 -6 296 -10 303 -5 6 -16 12 -25 12 -29 0 -62 30 -62 56
0 41 39 26 74 -28 24 -37 38 -35 35 5 -1 17 2 40 6 50 4 9 5 23 2 31 -3 8 1
122 8 253 8 131 15 279 15 330 l0 92 -44 35 c-23 20 -45 36 -47 35 -2 0 -19
-21 -37 -46z m0 -2333 c-2 -16 -6 -30 -8 -30 -2 0 -4 14 -4 30 0 17 4 30 8 30
5 0 7 -13 4 -30z"/>
<path d="M903 3153 c-18 -7 -17 -105 1 -148 25 -60 36 -42 36 60 0 96 -3 102
-37 88z"/>
<path d="M897 2954 c-14 -14 -7 -72 12 -95 11 -13 22 -22 24 -19 3 3 7 30 8
60 3 49 1 55 -17 58 -11 2 -23 0 -27 -4z"/>
<path d="M1193 1207 c-63 -15 -58 -40 23 -116 36 -34 87 -90 113 -124 l47 -62
-20 -36 c-12 -19 -54 -72 -94 -118 -40 -45 -78 -94 -85 -109 -6 -15 -24 -44
-40 -64 -16 -20 -27 -41 -24 -45 3 -5 -3 -24 -14 -41 -25 -43 -24 -47 11 -62
26 -11 33 -10 43 3 7 8 49 60 93 115 45 54 89 113 99 129 15 26 54 56 136 105
18 11 28 30 36 64 7 27 14 56 17 64 4 9 -12 40 -39 75 -25 33 -45 65 -45 72 0
6 -24 26 -52 43 -29 18 -76 52 -105 76 -28 24 -53 43 -55 43 -1 -1 -22 -6 -45
-12z"/>
<path d="M171 1060 c-42 -36 -67 -67 -84 -103 l-23 -52 50 -64 50 -64 23 29
c13 16 20 36 17 44 -29 69 -30 63 24 132 29 36 52 70 52 74 0 5 -11 19 -24 32
l-24 22 -61 -50z"/>
<path d="M238 794 c-33 -17 -35 -34 -8 -89 14 -29 33 -49 63 -64 40 -21 157
-147 157 -169 0 -20 17 -22 49 -6 21 11 30 21 27 31 -3 8 -6 27 -6 43 0 36
-55 105 -95 120 -16 6 -59 41 -95 79 -64 68 -65 69 -92 55z"/>
<path d="M793 343 c-7 -2 -13 -12 -13 -22 0 -9 -20 -39 -45 -68 -40 -46 -45
-56 -45 -101 0 -47 2 -51 47 -86 54 -42 87 -53 108 -36 23 19 55 116 55 166 0
50 -37 144 -57 144 -6 0 -17 2 -25 4 -7 3 -19 2 -25 -1z"/>
</g>
</svg>
